<?xml version="1.0" encoding="UTF-8" standalone="no"?>
<!-- Created with Inkscape (http://www.inkscape.org/) -->

<svg
   width="790.96136mm"
   height="790.96136mm"
   viewBox="0 0 790.96136 790.96136"
   version="1.1"
   id="svg1"
   xml:space="preserve"
   sodipodi:docname="53.svg"
   inkscape:version="1.4 (86a8ad7, 2024-10-11)"
   xmlns:inkscape="http://www.inkscape.org/namespaces/inkscape"
   xmlns:sodipodi="http://sodipodi.sourceforge.net/DTD/sodipodi-0.dtd"
   xmlns="http://www.w3.org/2000/svg"
   xmlns:svg="http://www.w3.org/2000/svg"><sodipodi:namedview
     id="namedview1"
     pagecolor="#ffffff"
     bordercolor="#000000"
     borderopacity="0.25"
     inkscape:showpageshadow="2"
     inkscape:pageopacity="0.0"
     inkscape:pagecheckerboard="0"
     inkscape:deskcolor="#d1d1d1"
     inkscape:document-units="mm"
     inkscape:zoom="0.28407626"
     inkscape:cx="1825.2141"
     inkscape:cy="677.63494"
     inkscape:window-width="1539"
     inkscape:window-height="1377"
     inkscape:window-x="-1"
     inkscape:window-y="0"
     inkscape:window-maximized="0"
     inkscape:current-layer="layer1" /><defs
     id="defs1" /><g
     inkscape:label="Ebene 1"
     inkscape:groupmode="layer"
     id="layer1"
     transform="translate(169.33333,119.32708)"><g
       id="g1611"
       transform="matrix(-0.32149953,-0.28776822,0.28776822,-0.32149953,31.704173,1512.5504)"><g
         id="g1610"
         transform="matrix(1.2286588,0,0,1.2854709,-363.24131,-769.88158)"><path
           id="path1608"
           style="fill:#800000;fill-opacity:0.222879;stroke-width:0.0002325;stroke-linejoin:round;paint-order:stroke fill markers"
           inkscape:transform-center-x="4.0857013e-05"
           inkscape:transform-center-y="280.43084"
           transform="matrix(2.5228849,0,0,2.5302498,-302.19756,-3487.0657)"
           d="M 1133.3789,1779.0193 749.44812,2444.007 365.51734,1779.0193 924.1246,1466.0322 Z"
           sodipodi:nodetypes="ccccc" /></g><path
         style="fill:#800000;fill-opacity:1;fill-rule:nonzero;stroke:none;stroke-width:6.07605"
         d="m 1588.5738,2676.4709 c -4.5333,0 -6.076,12.1521 -6.076,12.1521 v 11.9622 l -30.3803,21.4561 v 6.076 l 30.3803,-7.595 v 14.6205 l -12.1521,8.1646 v 6.0761 l 18.2281,-4.557 18.2282,4.557 v -6.0761 l -12.1521,-8.1646 v -14.6205 l 30.3802,7.595 v -6.076 l -30.3802,-21.4561 v -11.9622 c 0,0 -1.5427,-12.1521 -6.0761,-12.1521 z m 0,0"
         id="path1611" /></g><circle
       style="fill:#6e1212;stroke:none;stroke-width:0.964999;paint-order:markers fill stroke"
       id="path1"
       cx="756.18542"
       cy="419.5224"
       r="10" /></g></svg>
