<?xml version="1.0" encoding="UTF-8" standalone="no"?>
<svg
   enable-background="new 0 0 26 26"
   id="Слой_1"
   version="1.1"
   viewBox="0 0 26 26"
   xml:space="preserve"
   sodipodi:docname="map-symbol.svg"
   inkscape:version="1.4 (e7c3feb100, 2024-10-09)"
   xmlns:inkscape="http://www.inkscape.org/namespaces/inkscape"
   xmlns:sodipodi="http://sodipodi.sourceforge.net/DTD/sodipodi-0.dtd"
   xmlns="http://www.w3.org/2000/svg"
   xmlns:svg="http://www.w3.org/2000/svg"><defs
     id="defs2" /><sodipodi:namedview
     id="namedview2"
     pagecolor="#ffffff"
     bordercolor="#999999"
     borderopacity="1"
     inkscape:showpageshadow="0"
     inkscape:pageopacity="0"
     inkscape:pagecheckerboard="0"
     inkscape:deskcolor="#d1d1d1"
     inkscape:zoom="19.823004"
     inkscape:cx="13.746655"
     inkscape:cy="9.5848238"
     inkscape:window-width="1920"
     inkscape:window-height="1128"
     inkscape:window-x="0"
     inkscape:window-y="0"
     inkscape:window-maximized="1"
     inkscape:current-layer="Слой_1" /><path
     d="m 24.902161,21.047363 c 0.02295,-0.04321 0.04218,-0.08551 0.05634,-0.132324 0.01355,-0.04443 0.02069,-0.08856 0.02582,-0.135559 0.0056,-0.05115 0.0065,-0.100464 0.0014,-0.152588 -0.0023,-0.02332 0.0051,-0.04529 6.1e-4,-0.06879 l -1.831055,-9.481934 c -0.0067,-0.03406 -0.02692,-0.06043 -0.03772,-0.09241 -0.0105,-0.03156 -0.0098,-0.06439 -0.02478,-0.09509 -0.0076,-0.0155 -0.02167,-0.02466 -0.03015,-0.03937 -0.02722,-0.04785 -0.06122,-0.08722 -0.09753,-0.127319 -0.02924,-0.03217 -0.05591,-0.06457 -0.08978,-0.09082 -0.04096,-0.03198 -0.086,-0.05389 -0.132873,-0.07672 -0.04077,-0.0199 -0.07916,-0.0401 -0.122742,-0.05237 -0.04388,-0.01227 -0.08868,-0.01489 -0.135132,-0.01886 -0.05383,-0.0049 -0.105713,-0.0081 -0.160156,-9.76e-4 -0.01642,0.0021 -0.03149,-0.0035 -0.04803,-3.05e-4 -0.0329,0.0063 -0.05817,0.02637 -0.08911,0.03668 -0.03229,0.0108 -0.06604,0.01019 -0.09741,0.02582 l -2.752442,1.345459 c 0.439515,-0.876648 0.79834,-1.9657598 0.79834,-3.205811 0,-3.9213867 -3.178711,-7.1137695 -7.092773,-7.1342773 -0.0098,0 -0.01758,0 -0.02539,0 -0.0078,0 -0.01563,0 -0.02539,0 -3.9150396,0.020508 -7.0937505,3.2128906 -7.0937505,7.1342773 0,1.2284546 0.3527222,2.30896 0.7872314,3.181946 l -3.4337158,1.678406 c -0.014282,0.007 -0.022705,0.02008 -0.036316,0.02783 -0.051697,0.02905 -0.095215,0.06561 -0.1384888,0.10614 -0.029236,0.0274 -0.058411,0.05255 -0.082642,0.0838 -0.030945,0.03998 -0.052856,0.08435 -0.075439,0.130798 -0.021667,0.04419 -0.041748,0.08667 -0.054443,0.134156 -0.00464,0.01752 -0.016418,0.03094 -0.019897,0.04901 l -1.8310547,9.481933 c -0.00458,0.02386 0.00287,0.0462 6.104e-4,0.06995 -0.00513,0.05102 -0.00415,0.100281 0.0014,0.152099 0.00555,0.05054 0.014831,0.0976 0.030212,0.145203 0.00739,0.02332 0.00482,0.0473 0.014648,0.07025 0.012634,0.02942 0.033142,0.052 0.048889,0.07892 0.013916,0.0238 0.026245,0.04687 0.042664,0.06897 0.046814,0.06317 0.100769,0.118042 0.1628418,0.162536 0.008,0.0058 0.013611,0.01373 0.021851,0.01917 0.074341,0.04907 0.1575317,0.08026 0.2441406,0.100403 0.00964,0.0023 0.016724,0.009 0.026489,0.01093 0.047852,0.0091 0.094788,0.01331 0.1407471,0.01343 6.104e-4,0 0.00122,2.44e-4 0.00183,2.44e-4 1.221e-4,0 1.831e-4,-6.1e-5 3.052e-4,-6.1e-5 2.441e-4,0 4.272e-4,6.1e-5 6.714e-4,6.1e-5 0.096252,0 0.1879883,-0.02191 0.274353,-0.05634 0.00677,-0.0026 0.013855,-0.0013 0.020569,-0.0042 L 8.7768554,21.504944 17,24.407227 c 0.0057,0.002 0.01135,0.0011 0.01703,0.0029 0.07495,0.0246 0.152893,0.04004 0.232971,0.04004 0.09204,0 0.180298,-0.02191 0.264709,-0.05414 0.01025,-0.0038 0.021,-0.0021 0.03119,-0.0064 l 7,-3 c 0.02252,-0.0096 0.03693,-0.02856 0.05798,-0.0401 0.04468,-0.02441 0.08386,-0.052 0.12207,-0.08435 0.03711,-0.03137 0.0705,-0.06293 0.100403,-0.10022 0.02985,-0.03705 0.05341,-0.07556 0.07581,-0.117615 z M 4.24646,14.727722 7.4664307,13.153809 8.8291626,15.007202 8.3119507,20.071655 2.7545166,22.45343 Z m 5.0667114,5.375977 0.3980103,-3.896912 2.6892093,3.657471 c 0.141601,0.192383 0.391601,0.305664 0.629883,0.305664 0.238281,0 0.46289,-0.11377 0.604492,-0.305664 l 2.389343,-3.250366 0.620605,6.077392 z m 8.3381346,2.608215 -0.745239,-7.297851 0.764465,-1.039978 4.197815,-2.052002 1.530701,7.926574 z M 13.017578,3.0498047 c 3.099609,0.00684 5.618164,2.5317383 5.618164,5.6342773 0,1.464356 -0.652344,2.699707 -1.205078,3.484375 -0.002,0.0024 -0.0039,0.0044 -0.0059,0.0068 l -4.407227,5.995605 -4.3916015,-5.973144 c -0.00293,-0.0034 -0.00488,-0.0068 -0.00781,-0.01025 -0.5566406,-0.78418 -1.2197266,-2.02832 -1.2197266,-3.503418 0,-3.102539 2.5195313,-5.6274414 5.6191401,-5.6342773 z"
     fill="#1d1d1b"
     id="path1"
     style="fill:#b3b3b3;fill-opacity:1" /><path
     d="m 13.030273,11.847168 c 1.741211,0 3.158203,-1.418945 3.158203,-3.1630859 0,-1.7441406 -1.416992,-3.1630859 -3.158203,-3.1630859 -1.742187,0 -3.1591793,1.4189453 -3.1591793,3.1630859 0,1.7441409 1.4169923,3.1630859 3.1591793,3.1630859 z m 0,-5.3261719 c 1.19043,0 2.158204,0.9702148 2.158204,2.1630859 0,1.1928711 -0.967774,2.163086 -2.158204,2.163086 -1.190429,0 -2.159179,-0.9702149 -2.159179,-2.163086 0,-1.1928711 0.96875,-2.1630859 2.159179,-2.1630859 z"
     fill="#1d1d1b"
     id="path2"
     style="fill:#800000" /><path
     d="M 12.992188,1.5488281 C 9.0771479,1.5693361 5.8984375,4.762207 5.8984375,8.6835938 c 0,1.2284546 0.3526002,2.3086542 0.7871094,3.1816402 l 0.78125,1.289063 1.3632812,1.853516 0.8808594,1.199218 2.6894535,3.658203 c 0.141601,0.192383 0.392577,0.304688 0.630859,0.304688 0.238281,0 0.461914,-0.112794 0.603516,-0.304688 l 2.388671,-3.251953 3.314459,-4.722659 c 0.439515,-0.876648 0.798828,-1.96698 0.798828,-3.2070312 0,-3.9213867 -3.179688,-7.1142579 -7.09375,-7.1347657 h -0.02539 z m 0.02539,1.5 v 0.00195 c 3.099609,0.00684 5.617188,2.5302734 5.617188,5.6328125 0,1.4643564 -0.652345,2.6997074 -1.205079,3.4843754 -0.002,0.0024 -0.0039,0.0054 -0.0059,0.0078 L 13.017578,18.169922 8.625,12.197266 c -0.00293,-0.0034 -0.00488,-0.0063 -0.00781,-0.0098 -0.5566406,-0.78418 -1.21875,-2.028808 -1.21875,-3.5039062 0,-3.1025391 2.5195318,-5.6279298 5.619141,-5.6347657 z"
     style="fill:#800000"
     id="path18"
     sodipodi:nodetypes="cscccccscccscccccscccccscc" /></svg>
