<?xml version="1.0" encoding="UTF-8" standalone="no"?>
<svg
   fill="#000000"
   width="600.66003"
   height="840.38098"
   viewBox="0 0 24.026401 33.615239"
   id="icon"
   version="1.1"
   sodipodi:docname="touch-synbol.svg"
   inkscape:version="1.4 (86a8ad7, 2024-10-11)"
   xmlns:inkscape="http://www.inkscape.org/namespaces/inkscape"
   xmlns:sodipodi="http://sodipodi.sourceforge.net/DTD/sodipodi-0.dtd"
   xmlns="http://www.w3.org/2000/svg"
   xmlns:svg="http://www.w3.org/2000/svg"
   xmlns:rdf="http://www.w3.org/1999/02/22-rdf-syntax-ns#"
   xmlns:cc="http://creativecommons.org/ns#"
   xmlns:dc="http://purl.org/dc/elements/1.1/">
  <sodipodi:namedview
     id="namedview2"
     pagecolor="#ffffff"
     bordercolor="#000000"
     borderopacity="0.25"
     inkscape:showpageshadow="2"
     inkscape:pageopacity="0.0"
     inkscape:pagecheckerboard="0"
     inkscape:deskcolor="#d1d1d1"
     inkscape:zoom="0.75375"
     inkscape:cx="208.29187"
     inkscape:cy="594.36153"
     inkscape:window-width="2560"
     inkscape:window-height="1386"
     inkscape:window-x="-8"
     inkscape:window-y="-8"
     inkscape:window-maximized="1"
     inkscape:current-layer="g6" />
  <defs
     id="defs1">
    <style
       id="style1">.cls-1{fill:none;}
       
       #path4 {
         animation: filter-animation 2s infinite;
         animation-fill-mode: linear;
         animation-timing-function: linear;
      }
      #path5 {
         animation: filter-animation1 2s infinite;
         animation-fill-mode: linear;
         animation-timing-function: linear;
      }
      #path6 {
         animation: filter-animation2 2s infinite;
         animation-fill-mode: linear;
         animation-timing-function: linear;
      }

      @keyframes filter-animation {
         0% {stroke: #d1d2d4; }
         50% { stroke: #800000; }
         100% { stroke: #d1d2d4;  }
      }
      @keyframes filter-animation1 {
         0% { stroke: #a8696a; }
         25% { stroke: #d1d2d4; }
         50% { stroke: #a8696a; }
         75% { stroke: #800000;  }
      }
      @keyframes filter-animation2 {
         0% {stroke: #800000; }
         50% { stroke: #d1d2d4; }
         100% { stroke: #800000;  }
      }


</style>
  </defs>
  <title
     id="title1">touch-1</title>
  <g
     id="g6"
     transform="rotate(31.85534,12.735931,12.405384)">
    <path
       d="M 25,15 A 2.94,2.94 0 0 0 23.53,15.4 3,3 0 0 0 21,14 2.94,2.94 0 0 0 19.53,14.4 3,3 0 0 0 16,13.18 V 8 8 A 3,3 0 0 0 10,8 V 19.1 L 7.77,17.58 v 0 A 2.93,2.93 0 0 0 6,17 3,3 0 0 0 3.88,22.13 l 8,7.3 A 6.16,6.16 0 0 0 16,31 h 5 a 7,7 0 0 0 7,-7 v -6 a 3,3 0 0 0 -3,-3 z m 1,9 a 5,5 0 0 1 -5,5 H 16 A 4.17,4.17 0 0 1 13.24,28 L 5.29,20.7 A 1,1 0 0 1 5,20 1,1 0 0 1 6.6,19.2 L 12,22.9 V 8 a 1,1 0 0 1 2,0 v 0 11 h 2 v -3 a 1,1 0 0 1 2,0 v 3 h 2 v -2 a 1,1 0 0 1 2,0 v 2 h 2 v -1 a 1,1 0 0 1 2,0 z"
       id="path2"
       style="fill:#ffffff" />
    <path
       style="fill:none;stroke:#d45500;stroke-width:1.20191;stroke-linejoin:round;stroke-dasharray:none;paint-order:stroke fill markers"
       id="path4"
       sodipodi:type="arc"
       sodipodi:cx="13"
       sodipodi:cy="7.8079138"
       sodipodi:rx="4.7044444"
       sodipodi:ry="4.7044444"
       sodipodi:start="3.1415927"
       sodipodi:end="0"
       sodipodi:arc-type="arc"
       d="M 8.2955556,7.8079138 A 4.7044444,4.7044444 0 0 1 13,3.1034694 4.7044444,4.7044444 0 0 1 17.704444,7.8079138"
       sodipodi:open="true" />
    <path
       style="fill:none;stroke:#a8696a;stroke-width:1.20191;stroke-linejoin:round;stroke-dasharray:none;paint-order:stroke fill markers"
       id="path5"
       sodipodi:type="arc"
       sodipodi:cx="13"
       sodipodi:cy="7.8079138"
       sodipodi:rx="6.3764291"
       sodipodi:ry="6.3764291"
       sodipodi:start="3.1415927"
       sodipodi:end="0"
       sodipodi:arc-type="arc"
       d="M 6.6235709,7.8079138 A 6.3764291,6.3764291 0 0 1 13,1.4314847 6.3764291,6.3764291 0 0 1 19.376429,7.8079138"
       sodipodi:open="true" />
    <path
       style="fill:none;stroke:#d45500;stroke-width:1.20191;stroke-linejoin:round;stroke-dasharray:none;paint-order:stroke fill markers"
       id="path6"
       sodipodi:type="arc"
       sodipodi:cx="13"
       sodipodi:cy="7.8079138"
       sodipodi:rx="8.0407171"
       sodipodi:ry="8.0407171"
       sodipodi:start="3.1415927"
       sodipodi:end="0"
       sodipodi:arc-type="arc"
       d="M 4.9592829,7.8079138 A 8.0407171,8.0407171 0 0 1 13,-0.23280334 8.0407171,8.0407171 0 0 1 21.040717,7.8079138"
       sodipodi:open="true" />
  </g>
</svg>
